<?xml version="1.0" encoding="iso-8859-1"?>
<!-- Generator: Adobe Illustrator 18.0.0, SVG Export Plug-In . SVG Version: 6.00 Build 0)  -->
<!DOCTYPE svg PUBLIC "-//W3C//DTD SVG 1.1//EN" "http://www.w3.org/Graphics/SVG/1.1/DTD/svg11.dtd">
<svg version="1.1" id="Capa_1" xmlns="http://www.w3.org/2000/svg" xmlns:xlink="http://www.w3.org/1999/xlink" x="0px" y="0px"
	 viewBox="0 0 490 490" style="enable-background:new 0 0 490 490;" xml:space="preserve">
<path d="M489.927,239.193c-0.015-0.609-0.038-1.217-0.057-1.825c-0.041-1.337-0.09-2.671-0.151-4.003
	c-0.033-0.688-0.068-1.376-0.106-2.063c-0.071-1.293-0.154-2.583-0.245-3.871c-0.046-0.647-0.089-1.294-0.141-1.94
	c-0.121-1.55-0.26-3.094-0.411-4.635c-0.034-0.355-0.063-0.712-0.099-1.067c-0.192-1.879-0.408-3.751-0.643-5.618
	c-0.068-0.552-0.148-1.101-0.221-1.652c-0.177-1.33-0.359-2.657-0.558-3.98c-0.102-0.682-0.209-1.362-0.316-2.042
	c-0.191-1.216-0.393-2.429-0.603-3.639c-0.117-0.676-0.234-1.353-0.356-2.027c-0.24-1.319-0.495-2.633-0.756-3.945
	c-0.105-0.53-0.204-1.062-0.313-1.59c-0.371-1.8-0.761-3.593-1.171-5.378c-0.11-0.483-0.232-0.963-0.346-1.444
	c-0.314-1.327-0.634-2.65-0.968-3.968c-0.173-0.679-0.353-1.356-0.531-2.033c-0.298-1.133-0.603-2.264-0.917-3.39
	c-0.195-0.699-0.392-1.397-0.592-2.094c-0.333-1.156-0.678-2.306-1.028-3.455c-0.19-0.627-0.377-1.256-0.572-1.88
	c-0.535-1.709-1.085-3.412-1.657-5.104c-0.124-0.368-0.258-0.732-0.384-1.101c-0.468-1.362-0.943-2.721-1.435-4.073
	c-0.244-0.671-0.496-1.338-0.745-2.007c-0.393-1.052-0.79-2.101-1.197-3.146c-0.276-0.713-0.557-1.424-0.841-2.133
	c-0.409-1.023-0.827-2.042-1.25-3.059c-0.282-0.68-0.563-1.36-0.851-2.037c-0.517-1.212-1.047-2.416-1.583-3.618
	c-0.208-0.467-0.409-0.938-0.62-1.403c-0.714-1.576-1.447-3.142-2.194-4.7c-0.311-0.65-0.632-1.293-0.948-1.939
	c-0.482-0.983-0.967-1.965-1.461-2.94c-0.357-0.704-0.719-1.404-1.082-2.104c-0.48-0.926-0.967-1.847-1.459-2.766
	c-0.369-0.69-0.739-1.382-1.115-2.069c-0.545-0.995-1.102-1.982-1.66-2.968c-0.33-0.584-0.654-1.172-0.989-1.753
	c-0.857-1.485-1.729-2.959-2.616-4.424c-0.359-0.595-0.73-1.182-1.095-1.773c-0.581-0.941-1.163-1.88-1.756-2.812
	c-0.427-0.671-0.858-1.336-1.292-2.002c-0.554-0.854-1.113-1.704-1.678-2.55c-0.445-0.667-0.892-1.333-1.343-1.995
	c-0.601-0.881-1.21-1.755-1.822-2.628c-0.419-0.599-0.834-1.2-1.259-1.794c-0.988-1.383-1.988-2.758-3.004-4.12v0
	c-26.757-35.862-63.104-64.141-105.236-81.062c-0.002-0.001-0.004-0.001-0.006-0.002c-1.676-0.673-3.363-1.326-5.057-1.963
	c-0.122-0.046-0.242-0.093-0.363-0.138c-1.606-0.601-3.222-1.182-4.844-1.75c-0.218-0.076-0.436-0.154-0.654-0.23
	c-1.547-0.537-3.102-1.056-4.663-1.562c-0.301-0.098-0.602-0.197-0.903-0.294c-1.494-0.478-2.996-0.94-4.503-1.391
	c-0.38-0.113-0.759-0.227-1.138-0.338c-1.444-0.424-2.895-0.834-4.35-1.232c-0.454-0.125-0.909-0.248-1.365-0.37
	c-1.395-0.372-2.794-0.734-4.199-1.082c-0.527-0.131-1.057-0.259-1.586-0.387c-1.348-0.325-2.698-0.641-4.055-0.943
	c-0.597-0.133-1.195-0.261-1.793-0.391c-1.303-0.28-2.606-0.553-3.916-0.813c-0.668-0.132-1.338-0.258-2.008-0.385
	c-1.252-0.237-2.506-0.47-3.765-0.688c-0.741-0.129-1.486-0.248-2.23-0.37c-1.2-0.197-2.401-0.391-3.607-0.57
	c-0.817-0.122-1.638-0.23-2.457-0.344c-1.146-0.158-2.292-0.318-3.444-0.46c-0.895-0.111-1.795-0.207-2.693-0.308
	c-1.088-0.122-2.175-0.248-3.268-0.356c-0.985-0.098-1.975-0.177-2.964-0.263c-1.017-0.088-2.031-0.183-3.052-0.259
	c-1.103-0.082-2.213-0.143-3.32-0.21c-0.917-0.056-1.831-0.121-2.751-0.167c-1.295-0.064-2.597-0.104-3.896-0.148
	c-0.743-0.025-1.484-0.063-2.23-0.081C249.121,0.027,247.064,0,245,0c-2.064,0-4.121,0.027-6.173,0.078
	c-0.747,0.019-1.488,0.056-2.233,0.081c-1.299,0.044-2.599,0.084-3.893,0.148c-0.922,0.045-1.838,0.111-2.756,0.167
	c-1.105,0.067-2.213,0.129-3.315,0.21c-1.022,0.076-2.039,0.171-3.058,0.259c-0.986,0.085-1.975,0.165-2.957,0.263
	c-1.096,0.108-2.186,0.235-3.277,0.357c-0.895,0.101-1.791,0.196-2.683,0.307c-1.155,0.143-2.304,0.303-3.454,0.461
	c-0.816,0.113-1.634,0.222-2.447,0.342c-1.21,0.18-2.414,0.375-3.618,0.572c-0.739,0.121-1.48,0.239-2.218,0.367
	c-1.264,0.219-2.521,0.453-3.778,0.69c-0.665,0.127-1.33,0.251-1.993,0.382c-1.314,0.261-2.624,0.535-3.931,0.816
	c-0.593,0.127-1.185,0.255-1.776,0.387c-1.362,0.304-2.721,0.621-4.074,0.947c-0.521,0.126-1.043,0.253-1.563,0.382
	c-1.413,0.351-2.82,0.714-4.224,1.089c-0.446,0.119-0.893,0.24-1.338,0.362c-1.464,0.4-2.923,0.813-4.377,1.24
	c-0.369,0.108-0.737,0.219-1.104,0.329c-1.52,0.453-3.032,0.92-4.538,1.402c-0.288,0.092-0.575,0.186-0.862,0.28
	c-1.576,0.511-3.146,1.035-4.707,1.577c-0.2,0.069-0.399,0.141-0.6,0.211c-1.641,0.574-3.275,1.163-4.9,1.771
	c-0.097,0.036-0.193,0.074-0.289,0.11C114.502,32.253,76.252,61.402,48.41,98.773c-0.975,1.309-1.937,2.627-2.886,3.956
	c-0.448,0.628-0.888,1.264-1.33,1.896c-0.587,0.839-1.173,1.678-1.75,2.524c-0.466,0.683-0.925,1.369-1.384,2.056
	c-0.549,0.823-1.093,1.65-1.633,2.48c-0.445,0.687-0.891,1.372-1.33,2.063c-0.572,0.899-1.133,1.805-1.693,2.712
	c-0.385,0.623-0.774,1.241-1.153,1.867c-0.88,1.455-1.746,2.918-2.597,4.393c-0.348,0.603-0.685,1.213-1.027,1.819
	c-0.547,0.965-1.091,1.931-1.624,2.904c-0.382,0.698-0.757,1.4-1.133,2.102c-0.485,0.905-0.965,1.814-1.438,2.727
	c-0.369,0.709-0.735,1.42-1.098,2.134c-0.488,0.963-0.966,1.932-1.441,2.902c-0.322,0.657-0.648,1.311-0.965,1.972
	c-0.736,1.536-1.459,3.079-2.163,4.632c-0.224,0.494-0.438,0.993-0.659,1.488c-0.531,1.193-1.058,2.388-1.57,3.591
	c-0.29,0.68-0.57,1.363-0.854,2.045c-0.422,1.014-0.839,2.031-1.247,3.051c-0.284,0.711-0.564,1.423-0.843,2.137
	c-0.405,1.044-0.802,2.091-1.194,3.142c-0.25,0.67-0.503,1.338-0.748,2.012c-0.489,1.349-0.964,2.704-1.431,4.063
	c-0.127,0.371-0.262,0.738-0.387,1.109c-0.572,1.693-1.122,3.396-1.657,5.105c-0.195,0.624-0.382,1.251-0.572,1.877
	c-0.35,1.148-0.694,2.299-1.027,3.454c-0.201,0.697-0.398,1.396-0.593,2.097c-0.314,1.128-0.62,2.259-0.918,3.393
	c-0.178,0.675-0.357,1.348-0.528,2.025c-0.336,1.323-0.658,2.651-0.973,3.982c-0.112,0.479-0.232,0.954-0.343,1.433
	c-0.41,1.787-0.8,3.581-1.171,5.382c-0.109,0.526-0.207,1.056-0.313,1.583c-0.262,1.314-0.516,2.629-0.757,3.951
	c-0.122,0.674-0.239,1.35-0.357,2.025c-0.21,1.212-0.411,2.427-0.603,3.645c-0.107,0.678-0.214,1.355-0.315,2.035
	c-0.198,1.327-0.382,2.658-0.559,3.992c-0.072,0.547-0.151,1.092-0.22,1.641c-0.234,1.867-0.45,3.74-0.643,5.62
	c-0.036,0.355-0.064,0.712-0.099,1.067c-0.151,1.541-0.29,3.085-0.411,4.635c-0.052,0.645-0.095,1.293-0.141,1.94
	c-0.091,1.288-0.174,2.578-0.245,3.871c-0.038,0.687-0.073,1.375-0.106,2.063c-0.061,1.331-0.11,2.666-0.151,4.003
	c-0.019,0.608-0.042,1.215-0.057,1.825C0.028,241.124,0,243.059,0,245c0,1.737,0.027,3.468,0.065,5.196
	c0.017,0.778,0.037,1.556,0.061,2.332c0.021,0.667,0.049,1.331,0.075,1.996c1.684,44.022,14.979,85.063,36.915,120.154
	c0.003,0.004,0.005,0.008,0.007,0.012c4.157,6.648,8.622,13.081,13.379,19.281c0.025,0.034,0.052,0.068,0.078,0.102
	c4.707,6.129,9.695,12.029,14.949,17.681c0.122,0.131,0.244,0.262,0.366,0.393c0.999,1.069,2.005,2.132,3.022,3.183
	c0.042,0.044,0.085,0.087,0.127,0.131c3.161,3.262,6.412,6.436,9.748,9.519c0.106,0.098,0.211,0.197,0.318,0.295
	c0.988,0.91,1.985,1.809,2.988,2.702c0.275,0.246,0.552,0.491,0.828,0.736c0.981,0.865,1.965,1.724,2.959,2.573
	c0.229,0.197,0.463,0.391,0.693,0.587c3.172,2.692,6.414,5.304,9.723,7.835c0.33,0.253,0.659,0.509,0.991,0.76
	c0.944,0.715,1.896,1.42,2.852,2.121c0.451,0.332,0.903,0.661,1.356,0.99c0.936,0.677,1.873,1.35,2.818,2.014
	c0.443,0.311,0.891,0.618,1.337,0.927c3.143,2.177,6.339,4.282,9.585,6.314c0.547,0.342,1.091,0.686,1.64,1.023
	c0.901,0.554,1.808,1.099,2.716,1.641c0.612,0.366,1.227,0.729,1.843,1.089c0.895,0.523,1.791,1.044,2.692,1.557
	c0.637,0.361,1.276,0.715,1.916,1.071c3.139,1.747,6.318,3.425,9.539,5.036c0.71,0.355,1.418,0.711,2.132,1.059
	c0.882,0.431,1.77,0.853,2.657,1.273c0.729,0.345,1.461,0.687,2.194,1.024c0.888,0.409,1.774,0.816,2.668,1.214
	c0.753,0.336,1.51,0.663,2.267,0.992c0.884,0.384,1.765,0.772,2.654,1.146c0.002,0.001,0.004,0.002,0.007,0.003
	C179.337,483.221,211.376,490,245,490c33.172,0,64.796-6.606,93.649-18.552c0.002-0.001,0.005-0.002,0.007-0.003
	c1.484-0.615,2.96-1.246,4.43-1.889c0.149-0.065,0.299-0.131,0.448-0.196c1.438-0.633,2.87-1.278,4.295-1.938
	c0.121-0.056,0.242-0.113,0.363-0.169c7.491-3.484,14.777-7.335,21.835-11.531c0.148-0.088,0.297-0.175,0.445-0.264
	c1.264-0.755,2.519-1.522,3.768-2.299c0.258-0.16,0.516-0.321,0.772-0.482c1.213-0.761,2.419-1.53,3.618-2.312
	c0.247-0.162,0.493-0.325,0.74-0.488c1.232-0.81,2.46-1.626,3.677-2.457c0.049-0.034,0.098-0.068,0.148-0.102
	c3.943-2.699,7.803-5.512,11.577-8.431c0.195-0.151,0.393-0.299,0.588-0.451c1.017-0.792,2.025-1.597,3.028-2.404
	c0.407-0.327,0.815-0.653,1.221-0.983c0.93-0.758,1.853-1.523,2.771-2.294c0.467-0.391,0.932-0.784,1.395-1.179
	c0.883-0.752,1.762-1.508,2.634-2.272c0.481-0.421,0.957-0.848,1.434-1.273c0.858-0.764,1.715-1.526,2.561-2.302
	c0.445-0.408,0.884-0.823,1.326-1.234c1.824-1.695,3.625-3.416,5.397-5.165c0.247-0.243,0.498-0.481,0.743-0.726
	c0.709-0.705,1.404-1.422,2.104-2.136c0.581-0.593,1.164-1.183,1.739-1.782c0.657-0.684,1.306-1.376,1.954-2.067
	c0.608-0.648,1.215-1.297,1.816-1.951c0.618-0.673,1.231-1.351,1.843-2.031c0.626-0.697,1.247-1.398,1.865-2.102
	c0.576-0.657,1.152-1.315,1.723-1.979c0.659-0.768,1.311-1.542,1.96-2.318c0.517-0.616,1.037-1.229,1.547-1.851
	c0.814-0.991,1.615-1.993,2.414-2.997c0.333-0.419,0.674-0.832,1.004-1.253c1.101-1.402,2.184-2.818,3.254-4.244
	c0.393-0.522,0.775-1.053,1.162-1.578c0.706-0.957,1.41-1.915,2.102-2.882c0.426-0.594,0.844-1.193,1.265-1.792
	c0.645-0.917,1.284-1.838,1.917-2.765c0.418-0.614,0.834-1.23,1.247-1.848c0.631-0.943,1.254-1.892,1.872-2.845
	c0.388-0.597,0.776-1.193,1.158-1.794c0.664-1.043,1.316-2.094,1.965-3.148c0.317-0.515,0.64-1.026,0.953-1.543
	c0.938-1.548,1.86-3.106,2.764-4.676c0.016-0.026,0.031-0.052,0.046-0.077c0.001-0.001,0.001-0.003,0.002-0.004
	c19.162-33.328,30.691-71.595,32.253-112.416c0.026-0.665,0.054-1.329,0.075-1.996c0.023-0.777,0.044-1.554,0.061-2.332
	c0.038-1.728,0.065-3.459,0.065-5.196C490,243.059,489.972,241.124,489.927,239.193z M255,76.606l61.818-44.913
	c5.309,1.79,10.563,3.783,15.756,5.98C359.365,49.005,383.43,65.23,404.1,85.9c11.277,11.278,21.222,23.573,29.78,36.764
	l-21.575,68.122l-64.304,21.111L255,144.33V76.606z M85.901,85.9c20.67-20.67,44.734-36.895,71.525-48.227
	c5.192-2.196,10.446-4.19,15.757-5.98L235,76.606v67.724l-93.498,67.93l-63.704-21.152l-21.677-68.443
	C64.68,109.474,74.624,97.178,85.901,85.9z M125.224,388.634l-61.027-9.667c-10.638-14.319-19.519-29.834-26.522-46.395
	c-11.47-27.116-17.394-55.897-17.649-85.572l51.564-36.881l63.743,21.165l36.109,111.131L125.224,388.634z M342.379,447.901
	c-3.227,1.549-6.494,3.024-9.805,4.425C304.848,464.054,275.384,470,245,470c-30.383,0-59.848-5.946-87.573-17.674
	c-3.724-1.575-7.39-3.255-11.007-5.018l-7.053-44.533l49.84-49.84h118.586l42.842,42.841L342.379,447.901z M452.326,332.573
	c-5.737,13.564-12.734,26.427-20.922,38.507l-66.629,10.552l-44.498-44.499l34.584-106.44l63.272-20.773l51.842,37.079
	C469.72,276.676,463.796,305.457,452.326,332.573z"/>
<g>
</g>
<g>
</g>
<g>
</g>
<g>
</g>
<g>
</g>
<g>
</g>
<g>
</g>
<g>
</g>
<g>
</g>
<g>
</g>
<g>
</g>
<g>
</g>
<g>
</g>
<g>
</g>
<g>
</g>
</svg>
